<?xml version="1.0" encoding="utf-8"?>
<!-- Generator: Adobe Illustrator 25.2.0, SVG Export Plug-In . SVG Version: 6.00 Build 0)  -->
<svg version="1.1" xmlns="http://www.w3.org/2000/svg" xmlns:xlink="http://www.w3.org/1999/xlink" x="0px" y="0px"
	 viewBox="0 0 480 480" style="enable-background:new 0 0 480 480;" xml:space="preserve">
<style type="text/css">
	.st0{fill:#FFFFFF;}
</style>
<g id="Calque_7_xA0_Image_1_">
	<g>
		<path d="M294.17,328.25c0.02,0.06,0.03,0.13,0.04,0.19h0.02C294.21,328.38,294.19,328.31,294.17,328.25z M297.64,115.66
			c-37.32-8.94-74.64-17.89-111.95-26.84c-0.23-0.06-0.43-0.17-0.65-0.26h-0.48v20.46c-0.13,0.08-0.19,0.14-0.25,0.15
			c-4.43,0.83-5.99,2.71-5.99,7.22v17.27c0.01,4.12,1.77,6.08,5.93,6.54v122.68c-0.38,0.08-0.77,0.15-1.15,0.24
			c-2.08,0.51-3.29,1.86-3.31,3.99c-0.05,5.59-0.06,11.19,0,16.79c0.02,2.55,1.5,3.91,4.51,4.31v14.56c3.13-1.36,5.8-3.09,8.33-5.03
			c10.9-8.35,17.93-19.38,22.16-32.3c3.5-10.68,4.66-21.68,4.44-32.86c-0.22-11.27-1.85-22.36-4.38-33.33
			c-0.09-0.37-0.14-0.76-0.22-1.26c3.51,0.77,6.75,1.97,9.87,3.48c8.59,4.13,15.79,10.11,22.36,16.91
			c9.05,9.37,16.55,19.91,23.17,31.07c11.38,19.19,20.41,39.4,26.46,60.9c1.02,3.63,2.84,9.03,3.15,16.08
			c0.05,1.05,0.05,1.92,0.05,2.51c0,2.33,1.98,4.2,4.25,4.07c2.29-0.13,4.07-2.23,3.78-4.57c0-70.12,0-140.24,0-210.36
			C304.3,117.26,300.97,116.46,297.64,115.66z M287.65,216.66c-4.04,0.01-7.32-3.27-7.33-7.3c0-4.04,3.28-7.32,7.31-7.33
			c4.04,0,7.32,3.27,7.33,7.31C294.96,213.37,291.68,216.66,287.65,216.66z"/>
		<path d="M294.21,328.44c-0.01-0.06-0.02-0.13-0.04-0.19c-0.06-0.21-0.12-0.42-0.18-0.63c-0.38-1.3-0.78-2.62-1.18-3.94
			c-6.32-20.7-14.04-40.84-24.29-59.94c-5.84-10.88-12.47-21.23-20.99-30.25c-5.01-5.29-10.55-9.89-17.2-13.03
			c-1-0.48-2.04-0.89-3.23-1.4c0.25,1.76,0.49,3.35,0.69,4.95c2.71,21.34-2.03,41.07-12.82,59.53c-4.63,7.93-10.72,14.7-16.59,21.68
			c-4.11,4.88-7.89,10.05-11.77,15.12c-0.63,0.82-1.11,1.76-1.57,2.69c-0.91,1.83-1.64,3.68,0.38,5.4c0,0,0,0,0.01,0.01
			c1.01,0.74,3.4,1.31,4.27,1.46c6.27,1.57,102.84,12.08,104.52-0.73C294.25,328.92,294.25,328.68,294.21,328.44z M206.14,317.41
			c-1.04-0.02-1.9-0.89-1.89-1.93c0.01-1.04,0.89-1.9,1.93-1.89c1.04,0.01,1.9,0.89,1.89,1.93
			C208.06,316.56,207.18,317.42,206.14,317.41z M224.5,326.29c-1.08-0.01-1.97-0.89-2.01-1.97c-0.04-1.12,0.87-2.07,1.99-2.1
			c1.12-0.02,2.07,0.91,2.07,2.03C226.56,325.36,225.61,326.3,224.5,326.29z M247.85,317.17c-1.38,0.03-2.54-1.09-2.56-2.46
			c-0.03-1.38,1.09-2.54,2.46-2.56c1.38-0.03,2.54,1.08,2.56,2.46C250.34,315.99,249.23,317.14,247.85,317.17z M263.5,273.87
			c-1.1,0.4-2.01,0.03-2.68-1.17c-0.38-0.7-0.55-1.53-1.01-2.16c-0.35-0.48-1.01-0.73-1.54-1.08c-0.25,0.56-0.77,1.15-0.71,1.68
			c0.09,0.73,0.46,1.54,0.96,2.07c1.36,1.45,0.94,4.72-0.82,5.63c-1.22,0.63-2.62-0.09-2.54-1.45c0.07-1.29,0.26-2.64,0.74-3.83
			c0.69-1.72,0.58-3.11-0.67-4.51c-0.8-0.89-1.41-1.93-2.08-2.93c-0.78-1.17-1.8-1.52-3.09-1.01c-2.22,0.89-3.64,2.91-3.36,4.93
			c0.07,0.48,0.39,1.12,0.78,1.33c1.66,0.88,1.69,3.52,0.87,4.55c-1,1.24-2.81,1.53-4.07,0.59c-1.35-1.01-1.56-3.35-0.52-4.77
			c0.38-0.51,0.66-1.15,0.81-1.77c0.17-0.67-0.04-1.24-0.73-1.7c-0.48-0.33-0.81-0.97-1.08-1.54c-1.14-2.29-3.14-3.45-5.43-4.21
			c-1.12-0.37-1.5-0.03-1.66,1.14c-0.11,0.88-0.39,1.7-1.36,1.89c-1.01,0.2-1.7-0.41-2.15-1.2c-0.96-1.68-0.74-3.47-0.41-5.26
			c0.76-4.15,1.83-8.28,2.23-12.47c0.43-4.55,0.23-9.17,0.31-13.75v-0.82c1.2,0.92,2.28,1.71,3.33,2.56
			c11.44,9.26,20.23,20.57,26.39,33.94c0.39,0.86,0.69,1.79,0.88,2.72C265.14,272.53,264.56,273.49,263.5,273.87z M277.08,322.69
			c-1.07,0-1.98-0.87-2.03-1.95c-0.05-1.12,0.85-2.08,1.97-2.11c1.12-0.04,2.08,0.88,2.09,2
			C279.13,321.74,278.19,322.69,277.08,322.69z"/>
		<path class="st0" d="M263.5,273.87c-1.1,0.4-2.01,0.03-2.68-1.17c-0.38-0.7-0.55-1.53-1.01-2.16c-0.35-0.48-1.01-0.73-1.54-1.08
			c-0.25,0.56-0.77,1.15-0.71,1.68c0.09,0.73,0.46,1.54,0.96,2.07c1.36,1.45,0.94,4.72-0.82,5.63c-1.22,0.63-2.62-0.09-2.54-1.45
			c0.07-1.29,0.26-2.64,0.74-3.83c0.69-1.72,0.58-3.11-0.67-4.51c-0.8-0.89-1.41-1.93-2.08-2.93c-0.78-1.17-1.8-1.52-3.09-1.01
			c-2.22,0.89-3.64,2.91-3.36,4.93c0.07,0.48,0.39,1.12,0.78,1.33c1.66,0.88,1.69,3.52,0.87,4.55c-1,1.24-2.81,1.53-4.07,0.59
			c-1.35-1.01-1.56-3.35-0.52-4.77c0.38-0.51,0.66-1.15,0.81-1.77c0.17-0.67-0.04-1.24-0.73-1.7c-0.48-0.33-0.81-0.97-1.08-1.54
			c-1.14-2.29-3.14-3.45-5.43-4.21c-1.12-0.37-1.5-0.03-1.66,1.14c-0.11,0.88-0.39,1.7-1.36,1.89c-1.01,0.2-1.7-0.41-2.15-1.2
			c-0.96-1.68-0.74-3.47-0.41-5.26c0.76-4.15,1.83-8.28,2.23-12.47c0.43-4.55,0.23-9.17,0.31-13.75v-0.82
			c1.2,0.92,2.28,1.71,3.33,2.56c11.44,9.26,20.23,20.57,26.39,33.94c0.39,0.86,0.69,1.79,0.88,2.72
			C265.14,272.53,264.56,273.49,263.5,273.87z"/>
		<path class="st0" d="M294.96,209.34c0,4.03-3.27,7.32-7.31,7.32c-4.04,0-7.32-3.27-7.33-7.31c0-4.03,3.27-7.32,7.31-7.32
			C291.67,202.03,294.95,205.3,294.96,209.34z"/>
		<path class="st0" d="M250.31,314.61c0.03,1.38-1.08,2.53-2.46,2.56c-1.38,0.03-2.54-1.09-2.56-2.46
			c-0.03-1.38,1.09-2.54,2.46-2.56C249.13,312.12,250.29,313.23,250.31,314.61z"/>
		<path class="st0" d="M279.11,320.63c0.02,1.11-0.92,2.06-2.03,2.06c-1.07,0-1.98-0.87-2.03-1.95c-0.05-1.12,0.85-2.08,1.97-2.11
			C278.14,318.59,279.1,319.51,279.11,320.63z"/>
		<path class="st0" d="M226.55,324.25c0.01,1.11-0.94,2.05-2.05,2.04c-1.08-0.01-1.97-0.89-2.01-1.97c-0.04-1.12,0.87-2.07,1.99-2.1
			C225.6,322.2,226.55,323.13,226.55,324.25z"/>
		<path class="st0" d="M208.07,315.52c-0.01,1.04-0.89,1.9-1.93,1.89c-1.04-0.02-1.9-0.89-1.89-1.93c0.01-1.04,0.89-1.9,1.93-1.89
			C207.22,313.6,208.08,314.48,208.07,315.52z"/>
	</g>
	<path d="M187.5,330.01L187.5,330.01z"/>
	<path d="M294.17,328.25c-0.06-0.21-0.12-0.42-0.18-0.63C294.07,327.82,294.14,328.03,294.17,328.25z"/>
	<path d="M195.39,335.93L195.39,335.93z"/>
</g>
<g id="DOOR__ITOS">
</g>
<g id="Calque_5_xA0_Image_1_">
</g>
</svg>
